<svg xmlns="http://www.w3.org/2000/svg" viewBox="0 0 689.64 104.93"><defs><style>.cls-1{fill:#fff;}</style></defs><g id="Layer_2" data-name="Layer 2"><g id="Layer_1-2" data-name="Layer 1"><path class="cls-1" d="M196.06,2.87l-12,98.62a1.93,1.93,0,0,0,1.9,2.17h13.25a1.93,1.93,0,0,0,1.91-1.7l12-98.62a1.93,1.93,0,0,0-1.9-2.17H198A1.93,1.93,0,0,0,196.06,2.87Z"/><path class="cls-1" d="M338.12,2.87l-12,98.62a1.93,1.93,0,0,0,1.91,2.17h13.24a1.92,1.92,0,0,0,1.91-1.7l12-98.62a1.94,1.94,0,0,0-1.91-2.17H340A1.91,1.91,0,0,0,338.12,2.87Z"/><path class="cls-1" d="M559.09,103.1l-.6-2a.13.13,0,0,0-.14-.1h-5.06a.13.13,0,0,0-.14.1l-.6,2a.32.32,0,0,1-.34.25h-1.76a.27.27,0,0,1-.23-.09.35.35,0,0,1,0-.25l4.14-12.94a.33.33,0,0,1,.35-.25h2.26a.33.33,0,0,1,.35.25L561.45,103a.27.27,0,0,1,0,.11c0,.16-.09.23-.27.23h-1.76A.33.33,0,0,1,559.09,103.1Zm-5.24-3.85h3.94c.08,0,.12,0,.1-.13l-2-6.57c0-.06,0-.08-.07-.08s-.06,0-.09.08l-2,6.57C553.74,99.21,553.77,99.25,553.85,99.25Z"/><path class="cls-1" d="M566.09,102.94a4.09,4.09,0,0,1-1.7-1.62,4.69,4.69,0,0,1-.6-2.39V94.25a4.71,4.71,0,0,1,.6-2.41,4.13,4.13,0,0,1,1.7-1.61,6,6,0,0,1,5.08,0,4.33,4.33,0,0,1,1.69,1.53,4.07,4.07,0,0,1,.6,2.19V94a.28.28,0,0,1-.31.31h-1.61a.38.38,0,0,1-.22,0,.14.14,0,0,1-.09-.12V94a2.3,2.3,0,0,0-.7-1.72,2.62,2.62,0,0,0-1.89-.67,2.57,2.57,0,0,0-1.89.7,2.51,2.51,0,0,0-.72,1.87V99a2.45,2.45,0,0,0,.76,1.87,2.73,2.73,0,0,0,2,.71,2.66,2.66,0,0,0,1.83-.61,2.18,2.18,0,0,0,.66-1.68V98.11a.1.1,0,0,0-.11-.11h-2.28a.28.28,0,0,1-.31-.31V96.41a.28.28,0,0,1,.31-.31h4.31a.28.28,0,0,1,.31.31v2.4a4.54,4.54,0,0,1-1.31,3.46,4.87,4.87,0,0,1-3.51,1.24A5.5,5.5,0,0,1,566.09,102.94Z"/><path class="cls-1" d="M585.66,91.75h-6.5c-.07,0-.11,0-.11.12v3.58a.1.1,0,0,0,.11.11h4.34a.28.28,0,0,1,.31.31v1.32a.27.27,0,0,1-.31.3h-4.34c-.07,0-.11,0-.11.12v3.7a.1.1,0,0,0,.11.11h6.5a.27.27,0,0,1,.31.31V103a.27.27,0,0,1-.31.31h-8.55a.28.28,0,0,1-.31-.31V90.13a.28.28,0,0,1,.31-.31h8.55a.27.27,0,0,1,.31.31v1.31A.27.27,0,0,1,585.66,91.75Z"/><path class="cls-1" d="M589.22,103V90.13a.27.27,0,0,1,.31-.31h1.55a.39.39,0,0,1,.38.21l5.42,8.86s0,.07.08.06,0,0,0-.1V90.13a.28.28,0,0,1,.31-.31H599a.28.28,0,0,1,.31.31V103a.28.28,0,0,1-.31.31h-1.59a.41.41,0,0,1-.39-.21l-5.41-8.91s-.06-.07-.09-.06-.05,0-.05.09l0,8.78a.27.27,0,0,1-.31.31h-1.6A.27.27,0,0,1,589.22,103Z"/><path class="cls-1" d="M605,102.94a4,4,0,0,1-1.7-1.6,4.59,4.59,0,0,1-.6-2.37V94.19a4.62,4.62,0,0,1,.6-2.38,4.09,4.09,0,0,1,1.7-1.59,5.57,5.57,0,0,1,2.55-.56,5.67,5.67,0,0,1,2.53.54,4,4,0,0,1,1.71,1.53,4.31,4.31,0,0,1,.59,2.28c0,.13-.09.21-.29.24l-1.64.09h-.08c-.15,0-.23,0-.23-.09v-.12a2.48,2.48,0,0,0-.7-1.84,2.93,2.93,0,0,0-3.78,0,2.46,2.46,0,0,0-.72,1.84v4.93a2.43,2.43,0,0,0,.72,1.82,2.92,2.92,0,0,0,3.78,0,2.44,2.44,0,0,0,.7-1.83.19.19,0,0,1,.09-.16.27.27,0,0,1,.22-.05l1.63.08q.3,0,.3.09v.1a4.36,4.36,0,0,1-.59,2.31,4,4,0,0,1-1.71,1.54,5.67,5.67,0,0,1-2.53.54A5.45,5.45,0,0,1,605,102.94Z"/><path class="cls-1" d="M618.57,103V97.94a.3.3,0,0,0,0-.14l-3.9-7.61a.38.38,0,0,1-.06-.18c0-.13.09-.19.27-.19h1.76a.39.39,0,0,1,.37.23l2.65,5.32a.1.1,0,0,0,.09.06s0,0,.06-.06l2.67-5.32a.39.39,0,0,1,.37-.23h1.78c.18,0,.27.06.27.19a.38.38,0,0,1-.06.18l-3.94,7.61a.63.63,0,0,0,0,.14V103a.27.27,0,0,1-.31.3h-1.63A.27.27,0,0,1,618.57,103Z"/><path class="cls-1" d="M551.94,83.71V70.79a.27.27,0,0,1,.31-.31h4.64a5.7,5.7,0,0,1,2.41.48,3.69,3.69,0,0,1,1.62,1.39,3.78,3.78,0,0,1,.57,2.09v5.61a3.84,3.84,0,0,1-.57,2.1,3.67,3.67,0,0,1-1.62,1.38,5.7,5.7,0,0,1-2.41.49h-4.64A.28.28,0,0,1,551.94,83.71Zm2.36-1.63H557a2.12,2.12,0,0,0,1.64-.65,2.48,2.48,0,0,0,.62-1.73V74.81a2.44,2.44,0,0,0-.61-1.75,2.21,2.21,0,0,0-1.67-.65H554.3a.11.11,0,0,0-.12.12V82C554.18,82,554.22,82.08,554.3,82.08Z"/><path class="cls-1" d="M573.71,72.41h-6.5c-.07,0-.11,0-.11.12v3.58a.1.1,0,0,0,.11.11h4.33a.28.28,0,0,1,.32.31v1.32a.28.28,0,0,1-.32.31h-4.33a.1.1,0,0,0-.11.11V82a.1.1,0,0,0,.11.11h6.5a.28.28,0,0,1,.31.31v1.32a.28.28,0,0,1-.31.31h-8.55a.28.28,0,0,1-.31-.31V70.79a.28.28,0,0,1,.31-.31h8.55a.27.27,0,0,1,.31.31V72.1A.27.27,0,0,1,573.71,72.41Z"/><path class="cls-1" d="M580.67,83.77l-4-12.94a.37.37,0,0,1,0-.12c0-.15.09-.23.27-.23h1.76a.33.33,0,0,1,.35.25l2.86,10s.05.08.09.08,0,0,.06-.08l2.85-10a.32.32,0,0,1,.35-.27H587a.27.27,0,0,1,.22.09.36.36,0,0,1,0,.26l-4.06,12.94a.34.34,0,0,1-.35.25H581A.34.34,0,0,1,580.67,83.77Z"/><path class="cls-1" d="M598.89,72.41h-6.5a.11.11,0,0,0-.12.12v3.58c0,.07,0,.11.12.11h4.33a.28.28,0,0,1,.31.31v1.32a.28.28,0,0,1-.31.31h-4.33c-.08,0-.12,0-.12.11V82c0,.07,0,.11.12.11h6.5a.28.28,0,0,1,.31.31v1.32a.28.28,0,0,1-.31.31h-8.55a.28.28,0,0,1-.31-.31V70.79a.27.27,0,0,1,.31-.31h8.55a.28.28,0,0,1,.31.31V72.1A.28.28,0,0,1,598.89,72.41Z"/><path class="cls-1" d="M602.45,83.71V70.79a.27.27,0,0,1,.31-.31h1.62a.27.27,0,0,1,.31.31V82c0,.07,0,.11.12.11h6.38a.28.28,0,0,1,.31.31v1.32a.28.28,0,0,1-.31.31h-8.43A.28.28,0,0,1,602.45,83.71Z"/><path class="cls-1" d="M616.35,83.62A4.16,4.16,0,0,1,614.62,82a5,5,0,0,1-.61-2.5V75a4.83,4.83,0,0,1,.62-2.46,4.28,4.28,0,0,1,1.73-1.67,5.89,5.89,0,0,1,5.14,0,4.31,4.31,0,0,1,1.74,1.67,4.83,4.83,0,0,1,.61,2.46v4.41a5,5,0,0,1-.61,2.5,4.24,4.24,0,0,1-1.74,1.67,5.91,5.91,0,0,1-5.15,0Zm4.53-2.1a2.73,2.73,0,0,0,.73-2V75a2.76,2.76,0,0,0-.73-2,2.61,2.61,0,0,0-2-.75A2.58,2.58,0,0,0,617,73a2.77,2.77,0,0,0-.74,2v4.51a2.73,2.73,0,0,0,.74,2,2.58,2.58,0,0,0,1.93.75A2.61,2.61,0,0,0,620.88,81.52Z"/><path class="cls-1" d="M634.9,71a3.71,3.71,0,0,1,1.44,1.42,4.32,4.32,0,0,1,.51,2.12,4.21,4.21,0,0,1-.52,2.09,3.51,3.51,0,0,1-1.48,1.4,4.78,4.78,0,0,1-2.22.5h-3.07c-.08,0-.12,0-.12.11v5.11a.28.28,0,0,1-.31.31h-1.62a.28.28,0,0,1-.31-.31V70.77a.27.27,0,0,1,.31-.31h5.24A4.52,4.52,0,0,1,634.9,71ZM634,76.09a2,2,0,0,0,.6-1.53A2.12,2.12,0,0,0,634,73a2.15,2.15,0,0,0-1.59-.6h-2.86a.11.11,0,0,0-.12.12v4a.11.11,0,0,0,.12.12h2.86A2.22,2.22,0,0,0,634,76.09Z"/><path class="cls-1" d="M639.79,83.71V70.79a.27.27,0,0,1,.31-.31h1.64a.41.41,0,0,1,.39.21l3,4.88a.1.1,0,0,0,.08.05.07.07,0,0,0,.07-.05l3.05-4.88a.41.41,0,0,1,.39-.21h1.63a.28.28,0,0,1,.31.31V83.71a.28.28,0,0,1-.31.31h-1.63a.28.28,0,0,1-.31-.31V74.56s0-.08,0-.1-.06,0-.08.06L646,78.29a.41.41,0,0,1-.39.21h-.75a.4.4,0,0,1-.39-.21l-2.3-3.77s-.06-.07-.09-.06a.11.11,0,0,0-.05.1v9.15a.28.28,0,0,1-.31.31H640.1A.28.28,0,0,1,639.79,83.71Z"/><path class="cls-1" d="M663.15,72.41h-6.5c-.08,0-.11,0-.11.12v3.58a.1.1,0,0,0,.11.11H661a.28.28,0,0,1,.31.31v1.32a.28.28,0,0,1-.31.31h-4.33a.1.1,0,0,0-.11.11V82a.1.1,0,0,0,.11.11h6.5a.28.28,0,0,1,.31.31v1.32a.28.28,0,0,1-.31.31H654.6a.28.28,0,0,1-.31-.31V70.79a.28.28,0,0,1,.31-.31h8.55a.28.28,0,0,1,.31.31V72.1A.28.28,0,0,1,663.15,72.41Z"/><path class="cls-1" d="M666.71,83.71V70.79a.27.27,0,0,1,.31-.31h1.54a.41.41,0,0,1,.39.21l5.42,8.86s0,.07.08.06,0,0,0-.1V70.79a.27.27,0,0,1,.31-.31h1.63c.2,0,.3.1.3.31V83.71a.27.27,0,0,1-.3.31h-1.59a.42.42,0,0,1-.39-.22l-5.41-8.91s-.06-.07-.09-.06a.1.1,0,0,0-.05.1l0,8.78a.28.28,0,0,1-.31.31H667A.28.28,0,0,1,666.71,83.71Z"/><path class="cls-1" d="M689.64,70.79v1.33a.27.27,0,0,1-.31.31h-3.46c-.08,0-.11,0-.11.12V83.71a.28.28,0,0,1-.31.31h-1.63a.28.28,0,0,1-.31-.31V72.55c0-.08,0-.12-.11-.12h-3.33a.27.27,0,0,1-.31-.31V70.79a.27.27,0,0,1,.31-.31h9.26A.27.27,0,0,1,689.64,70.79Z"/><path class="cls-1" d="M.44,101.41V91.74A3.8,3.8,0,0,1,1.61,89q6.88-7.33,23-26.09L34,52Q47.49,36.34,47.48,28.29a12.56,12.56,0,0,0-4.25-9.82,15.84,15.84,0,0,0-11-3.81q-6.74,0-10.92,3.81a13,13,0,0,0-4.17,10.11V31.8a2.08,2.08,0,0,1-2.35,2.35H2.35A2.07,2.07,0,0,1,0,31.8V26.09A24.43,24.43,0,0,1,4.54,12.31,27.84,27.84,0,0,1,16.05,3.22,39.56,39.56,0,0,1,32.24,0,37.81,37.81,0,0,1,49.39,3.67a27.25,27.25,0,0,1,11.28,10,26.55,26.55,0,0,1,4,14.29q0,12-12.75,27.7-4.69,6-11.14,13.34T27.85,83.53l-4.11,4.55c-.29.29-.39.54-.29.73s.34.29.73.29H64.63A2.07,2.07,0,0,1,67,91.45v10a2.07,2.07,0,0,1-2.34,2.35H2.78A2.07,2.07,0,0,1,.44,101.41Z"/><path class="cls-1" d="M91.89,101.41V3.52a2.08,2.08,0,0,1,2.34-2.35H129.4a43.19,43.19,0,0,1,18.32,3.67A28,28,0,0,1,160,15.31a29.1,29.1,0,0,1,4.32,15.91v42.5A29,29,0,0,1,160,89.61a27.94,27.94,0,0,1-12.24,10.48,43,43,0,0,1-18.32,3.67H94.23A2.07,2.07,0,0,1,91.89,101.41ZM109.77,89.1h20.37q7.76,0,12.38-4.91t4.76-13.11V34q0-8.35-4.69-13.26T130,15.83H109.77a.78.78,0,0,0-.88.88V88.22A.78.78,0,0,0,109.77,89.1Z"/><path class="cls-1" d="M250.45,100.61a30.84,30.84,0,0,1-12.89-12.24A35.83,35.83,0,0,1,233,70.2V34.73a35.7,35.7,0,0,1,4.54-18.24A31,31,0,0,1,250.45,4.32a45.32,45.32,0,0,1,38.47-.07,31.73,31.73,0,0,1,12.83,11.58,30.83,30.83,0,0,1,4.54,16.56V33A2.07,2.07,0,0,1,304,35.32H291.78A3.37,3.37,0,0,1,290.1,35a1.08,1.08,0,0,1-.66-1V32.83a17.29,17.29,0,0,0-5.35-13q-5.35-5.13-14.29-5.13T255.44,20Q250,25.36,250,34.15V70.78q0,8.81,5.72,14.15t14.8,5.34q8.79,0,13.85-4.61T289.44,73V64a.78.78,0,0,0-.88-.88H271.27a2.07,2.07,0,0,1-2.35-2.34V51.15a2.08,2.08,0,0,1,2.35-2.35H304a2.08,2.08,0,0,1,2.34,2.35V69.32q0,16.85-9.89,26.23t-26.6,9.38A41.55,41.55,0,0,1,250.45,100.61Z"/><path class="cls-1" d="M446.54,3.52V13.63A2.08,2.08,0,0,1,444.19,16H418a.78.78,0,0,0-.88.88v84.56a2.07,2.07,0,0,1-2.34,2.35H402.42a2.07,2.07,0,0,1-2.34-2.35V16.85a.78.78,0,0,0-.88-.88H374a2.07,2.07,0,0,1-2.34-2.34V3.52A2.08,2.08,0,0,1,374,1.17h70.2A2.08,2.08,0,0,1,446.54,3.52Z"/><path class="cls-1" d="M476.78,101.27a29.29,29.29,0,0,1-13-10.34,26.76,26.76,0,0,1-4.55-15.46V72.4a2.07,2.07,0,0,1,2.35-2.35h12c1.57,0,2.35.73,2.35,2.2V74.6q0,6.74,5.93,11.21t15.76,4.46q8.94,0,13.48-3.8a12.23,12.23,0,0,0,4.54-9.82,10.21,10.21,0,0,0-2.49-7,23.39,23.39,0,0,0-7.1-5.21q-4.62-2.34-13.85-5.86a144.4,144.4,0,0,1-16.86-7.18,31.45,31.45,0,0,1-10.77-9.16q-4.32-5.79-4.32-14.44,0-12.88,9.38-20.37T494.73,0a46.7,46.7,0,0,1,19.42,3.81,31,31,0,0,1,13.11,10.62A27.12,27.12,0,0,1,532,30.19v1.9a2.07,2.07,0,0,1-2.34,2.35h-12a2.7,2.7,0,0,1-1.69-.51,1.56,1.56,0,0,1-.65-1.25V31.07a14.71,14.71,0,0,0-5.65-11.65Q504,14.65,494,14.66q-8.07,0-12.53,3.36A11.22,11.22,0,0,0,477,27.55a10.77,10.77,0,0,0,2.34,7.18,21,21,0,0,0,7,5.06q4.69,2.26,14.51,5.79a163.71,163.71,0,0,1,16.64,7.18,32.12,32.12,0,0,1,10.7,9q4.46,5.79,4.46,14.44a26.25,26.25,0,0,1-4.39,15,28.42,28.42,0,0,1-12.61,10.11,47.86,47.86,0,0,1-19.34,3.59A48.69,48.69,0,0,1,476.78,101.27Z"/></g></g></svg>